<svg width="100" height="100" viewBox="0 0 100 100" fill="none" xmlns="http://www.w3.org/2000/svg">
<circle cx="50" cy="50" r="50" fill="white"/>
<path d="M50.0002 50.0001C47.3663 50.0001 45.2383 47.8721 45.2383 45.2382V21.4287C45.2383 18.7947 47.3663 16.6667 50.0002 16.6667C52.6341 16.6667 54.7621 18.7947 54.7621 21.4287V45.2382C54.7621 47.8721 52.6341 50.0001 50.0002 50.0001Z" fill="#595959"/>
<path d="M68.3029 22.1428C67.5589 21.6963 66.6958 21.4285 65.7732 21.4285C63.1392 21.4285 61.0113 23.5564 61.0113 26.1904C61.0113 27.113 61.2791 27.9761 61.7255 28.7053C62.0232 29.1814 62.4101 29.613 62.8565 29.9553C63.0351 30.0892 63.2136 30.2082 63.4071 30.3273C64.6124 31.1606 65.7583 32.0981 66.8297 33.1695C71.3386 37.6636 73.8089 43.6457 73.8089 49.9999C73.8089 56.3541 71.3386 62.3362 66.8297 66.8303C62.3357 71.3392 56.3535 73.8094 49.9993 73.8094C43.6452 73.8094 37.663 71.3392 33.169 66.8303C28.6601 62.3362 26.1898 56.3541 26.1898 49.9999C26.1898 43.6457 28.6601 37.6636 33.169 33.1695C34.2255 32.113 35.3714 31.1606 36.5767 30.3422C36.7851 30.2231 36.9636 30.1041 37.1571 29.9553C37.6035 29.613 37.9755 29.1963 38.2732 28.7201C38.7345 27.991 38.9874 27.1279 38.9874 26.2053C38.9874 23.5713 36.8595 21.4433 34.2255 21.4433C33.3029 21.4433 32.4398 21.7112 31.7107 22.1576L31.6958 22.1428C22.6482 28.0951 16.666 38.3481 16.666 49.9999C16.666 68.4076 31.5916 83.3332 49.9993 83.3332C68.4071 83.3332 83.3327 68.4076 83.3327 49.9999C83.3327 38.3481 77.3505 28.0951 68.3029 22.1428Z" fill="#595959"/>
</svg>
